<svg xmlns="http://www.w3.org/2000/svg" width="1200" height="630" viewBox="0 0 1200 630">
  <defs>
    <!-- Background radial glow -->
    <radialGradient id="bgGlow" cx="55%" cy="50%" r="60%">
      <stop offset="0%" stop-color="#1a0a2e" stop-opacity="1"/>
      <stop offset="100%" stop-color="#0a0a12" stop-opacity="1"/>
    </radialGradient>

    <!-- Orange gradient for shelves -->
    <linearGradient id="ogShelfTop" x1="0%" y1="0%" x2="100%" y2="0%">
      <stop offset="0%" stop-color="#F97316"/>
      <stop offset="100%" stop-color="#FB923C"/>
    </linearGradient>
    <linearGradient id="ogShelfMid" x1="0%" y1="0%" x2="100%" y2="0%">
      <stop offset="0%" stop-color="#F97316" stop-opacity=".9"/>
      <stop offset="100%" stop-color="#FDBA74" stop-opacity=".8"/>
    </linearGradient>
    <linearGradient id="ogShelfBot" x1="0%" y1="0%" x2="100%" y2="0%">
      <stop offset="0%" stop-color="#F97316" stop-opacity=".7"/>
      <stop offset="100%" stop-color="#FED7AA" stop-opacity=".55"/>
    </linearGradient>
    <linearGradient id="ogSupport" x1="0%" y1="0%" x2="0%" y2="100%">
      <stop offset="0%" stop-color="#6366F1"/>
      <stop offset="100%" stop-color="#818CF8" stop-opacity=".7"/>
    </linearGradient>

    <!-- Card gradient -->
    <linearGradient id="cardBg" x1="0%" y1="0%" x2="100%" y2="100%">
      <stop offset="0%" stop-color="#111120"/>
      <stop offset="100%" stop-color="#1a1a2e"/>
    </linearGradient>

    <!-- Orange accent gradient for elements -->
    <linearGradient id="barGrad" x1="0%" y1="0%" x2="0%" y2="100%">
      <stop offset="0%" stop-color="#F97316"/>
      <stop offset="100%" stop-color="#FB923C"/>
    </linearGradient>
    <linearGradient id="barGradIndigo" x1="0%" y1="0%" x2="0%" y2="100%">
      <stop offset="0%" stop-color="#6366F1"/>
      <stop offset="100%" stop-color="#818CF8"/>
    </linearGradient>

    <!-- Glow filter -->
    <filter id="orangeGlow">
      <feGaussianBlur stdDeviation="12" result="blur"/>
      <feComposite in="blur" in2="SourceGraphic" operator="over"/>
    </filter>
    <filter id="cardShadow">
      <feDropShadow dx="0" dy="4" stdDeviation="12" flood-color="#000" flood-opacity=".4"/>
    </filter>
  </defs>

  <!-- Background -->
  <rect width="1200" height="630" fill="url(#bgGlow)"/>

  <!-- Grid pattern overlay -->
  <rect width="1200" height="630" fill="none" opacity=".04">
    <animate attributeName="opacity" values=".04;.04" dur="1s"/>
  </rect>
  <!-- Horizontal grid lines -->
  <line x1="0" y1="90" x2="1200" y2="90" stroke="#ffffff" stroke-opacity=".03" stroke-width="1"/>
  <line x1="0" y1="180" x2="1200" y2="180" stroke="#ffffff" stroke-opacity=".03" stroke-width="1"/>
  <line x1="0" y1="270" x2="1200" y2="270" stroke="#ffffff" stroke-opacity=".03" stroke-width="1"/>
  <line x1="0" y1="360" x2="1200" y2="360" stroke="#ffffff" stroke-opacity=".03" stroke-width="1"/>
  <line x1="0" y1="450" x2="1200" y2="450" stroke="#ffffff" stroke-opacity=".03" stroke-width="1"/>
  <line x1="0" y1="540" x2="1200" y2="540" stroke="#ffffff" stroke-opacity=".03" stroke-width="1"/>
  <!-- Vertical grid lines -->
  <line x1="120" y1="0" x2="120" y2="630" stroke="#ffffff" stroke-opacity=".03" stroke-width="1"/>
  <line x1="240" y1="0" x2="240" y2="630" stroke="#ffffff" stroke-opacity=".03" stroke-width="1"/>
  <line x1="360" y1="0" x2="360" y2="630" stroke="#ffffff" stroke-opacity=".03" stroke-width="1"/>
  <line x1="480" y1="0" x2="480" y2="630" stroke="#ffffff" stroke-opacity=".03" stroke-width="1"/>
  <line x1="600" y1="0" x2="600" y2="630" stroke="#ffffff" stroke-opacity=".03" stroke-width="1"/>
  <line x1="720" y1="0" x2="720" y2="630" stroke="#ffffff" stroke-opacity=".03" stroke-width="1"/>
  <line x1="840" y1="0" x2="840" y2="630" stroke="#ffffff" stroke-opacity=".03" stroke-width="1"/>
  <line x1="960" y1="0" x2="960" y2="630" stroke="#ffffff" stroke-opacity=".03" stroke-width="1"/>
  <line x1="1080" y1="0" x2="1080" y2="630" stroke="#ffffff" stroke-opacity=".03" stroke-width="1"/>

  <!-- Orange accent blob (subtle) -->
  <ellipse cx="640" cy="315" rx="280" ry="200" fill="#F97316" opacity=".04" filter="url(#orangeGlow)"/>

  <!-- ===== LEFT COLUMN ===== -->

  <!-- Logo mark — 72px -->
  <g transform="translate(72, 64) scale(0.14)">
    <rect x="120" y="108" width="20" height="296" rx="10" fill="url(#ogSupport)"/>
    <rect x="120" y="108" width="224" height="40" rx="16" fill="url(#ogShelfTop)"/>
    <rect x="156" y="76" width="14" height="32" rx="5" fill="#6366F1" opacity=".85"/>
    <rect x="176" y="80" width="10" height="28" rx="4" fill="#818CF8" opacity=".70"/>
    <rect x="192" y="72" width="16" height="36" rx="5" fill="#6366F1" opacity=".90"/>
    <rect x="214" y="79" width="11" height="29" rx="4" fill="#A5B4FC" opacity=".60"/>
    <rect x="231" y="74" width="13" height="34" rx="5" fill="#6366F1" opacity=".75"/>
    <rect x="120" y="228" width="288" height="40" rx="16" fill="url(#ogShelfMid)"/>
    <rect x="156" y="196" width="14" height="32" rx="5" fill="#6366F1" opacity=".80"/>
    <rect x="176" y="200" width="10" height="28" rx="4" fill="#818CF8" opacity=".65"/>
    <rect x="192" y="192" width="16" height="36" rx="5" fill="#6366F1" opacity=".85"/>
    <rect x="231" y="194" width="13" height="34" rx="5" fill="#F97316" opacity=".70"/>
    <rect x="120" y="348" width="272" height="40" rx="16" fill="url(#ogShelfBot)"/>
    <rect x="156" y="316" width="14" height="32" rx="5" fill="#6366F1" opacity=".70"/>
    <rect x="192" y="312" width="16" height="36" rx="5" fill="#6366F1" opacity=".75"/>
    <rect x="100" y="388" width="312" height="6" rx="3" fill="#F97316" opacity=".22"/>
  </g>

  <!-- Product name -->
  <text x="143" y="89" font-family="Inter, -apple-system, sans-serif" font-size="28" font-weight="800" fill="#f1f5f9" letter-spacing="-0.03em">Shelf</text>

  <!-- Tagline -->
  <text x="72" y="148" font-family="Inter, -apple-system, sans-serif" font-size="42" font-weight="800" fill="#f1f5f9" letter-spacing="-0.03em">Your digital</text>
  <text x="72" y="200" font-family="Inter, -apple-system, sans-serif" font-size="42" font-weight="800" fill="#f1f5f9" letter-spacing="-0.03em">library,</text>
  <text x="72" y="252" font-family="Inter, -apple-system, sans-serif" font-size="42" font-weight="800" fill="#F97316" letter-spacing="-0.03em">organized.</text>

  <!-- Description -->
  <text x="72" y="310" font-family="Inter, -apple-system, sans-serif" font-size="18" font-weight="400" fill="#94a3b8">Save, organize, and rediscover everything</text>
  <text x="72" y="336" font-family="Inter, -apple-system, sans-serif" font-size="18" font-weight="400" fill="#94a3b8">that matters — in one place.</text>

  <!-- Feature pills -->
  <rect x="72" y="368" width="108" height="30" rx="15" fill="rgba(249,115,22,0.12)" stroke="#F97316" stroke-opacity=".3" stroke-width="1"/>
  <text x="126" y="388" font-family="Inter, -apple-system, sans-serif" font-size="12" font-weight="600" fill="#F97316" text-anchor="middle">Links &amp; Docs</text>

  <rect x="192" y="368" width="88" height="30" rx="15" fill="rgba(99,102,241,0.12)" stroke="#6366F1" stroke-opacity=".3" stroke-width="1"/>
  <text x="236" y="388" font-family="Inter, -apple-system, sans-serif" font-size="12" font-weight="600" fill="#818CF8" text-anchor="middle">12 Shelves</text>

  <rect x="292" y="368" width="100" height="30" rx="15" fill="rgba(16,185,129,0.12)" stroke="#10b981" stroke-opacity=".3" stroke-width="1"/>
  <text x="342" y="388" font-family="Inter, -apple-system, sans-serif" font-size="12" font-weight="600" fill="#10b981" text-anchor="middle">Highlights</text>

  <!-- URL -->
  <text x="72" y="546" font-family="Inter, -apple-system, sans-serif" font-size="15" font-weight="500" fill="#475569">shelf.app</text>

  <!-- Divider line -->
  <line x1="540" y1="48" x2="540" y2="582" stroke="#1e1e30" stroke-width="1"/>

  <!-- ===== RIGHT PANEL — Dashboard UI mockup ===== -->
  <!-- Panel background -->
  <rect x="572" y="48" width="580" height="534" rx="16" fill="url(#cardBg)" stroke="#1e1e30" stroke-width="1" filter="url(#cardShadow)"/>

  <!-- Panel header bar -->
  <rect x="572" y="48" width="580" height="48" rx="16" fill="#0d0d1e"/>
  <rect x="572" y="64" width="580" height="32" fill="#0d0d1e"/>

  <!-- Traffic light dots -->
  <circle cx="606" cy="72" r="6" fill="#ef4444" opacity=".7"/>
  <circle cx="626" cy="72" r="6" fill="#f59e0b" opacity=".7"/>
  <circle cx="646" cy="72" r="6" fill="#10b981" opacity=".7"/>

  <!-- Header title -->
  <text x="675" y="77" font-family="Inter, -apple-system, sans-serif" font-size="12" font-weight="600" fill="#64748b">Shelf — Dashboard</text>

  <!-- Stat cards row -->
  <rect x="592" y="112" width="124" height="68" rx="10" fill="#111120" stroke="#1e1e30" stroke-width="1"/>
  <text x="608" y="133" font-family="Inter, -apple-system, sans-serif" font-size="9" font-weight="700" fill="#64748b" letter-spacing=".06em">TOTAL ITEMS</text>
  <text x="608" y="157" font-family="Inter, -apple-system, sans-serif" font-size="22" font-weight="800" fill="#f1f5f9" letter-spacing="-0.03em">2,847</text>
  <text x="608" y="172" font-family="Inter, -apple-system, sans-serif" font-size="8" font-weight="600" fill="#10b981">+124 this month</text>

  <rect x="726" y="112" width="124" height="68" rx="10" fill="#111120" stroke="#1e1e30" stroke-width="1"/>
  <text x="742" y="133" font-family="Inter, -apple-system, sans-serif" font-size="9" font-weight="700" fill="#64748b" letter-spacing=".06em">SHELVES</text>
  <text x="742" y="157" font-family="Inter, -apple-system, sans-serif" font-size="22" font-weight="800" fill="#f1f5f9" letter-spacing="-0.03em">12</text>
  <text x="742" y="172" font-family="Inter, -apple-system, sans-serif" font-size="8" font-weight="600" fill="#6366F1">+3 this month</text>

  <rect x="860" y="112" width="124" height="68" rx="10" fill="#111120" stroke="#1e1e30" stroke-width="1"/>
  <text x="876" y="133" font-family="Inter, -apple-system, sans-serif" font-size="9" font-weight="700" fill="#64748b" letter-spacing=".06em">HIGHLIGHTS</text>
  <text x="876" y="157" font-family="Inter, -apple-system, sans-serif" font-size="22" font-weight="800" fill="#f1f5f9" letter-spacing="-0.03em">891</text>
  <text x="876" y="172" font-family="Inter, -apple-system, sans-serif" font-size="8" font-weight="600" fill="#10b981">+67 this week</text>

  <rect x="994" y="112" width="138" height="68" rx="10" fill="#111120" stroke="#1e1e30" stroke-width="1"/>
  <text x="1010" y="133" font-family="Inter, -apple-system, sans-serif" font-size="9" font-weight="700" fill="#64748b" letter-spacing=".06em">READ LATER</text>
  <text x="1010" y="157" font-family="Inter, -apple-system, sans-serif" font-size="22" font-weight="800" fill="#f1f5f9" letter-spacing="-0.03em">47</text>
  <text x="1010" y="172" font-family="Inter, -apple-system, sans-serif" font-size="8" font-weight="600" fill="#f59e0b">-8 since last week</text>

  <!-- Item list header -->
  <rect x="592" y="196" width="540" height="24" rx="6" fill="#0d0d1e" stroke="#1e1e30" stroke-width="1"/>
  <text x="614" y="212" font-family="Inter, -apple-system, sans-serif" font-size="8" font-weight="700" fill="#64748b" letter-spacing=".06em">TITLE</text>
  <text x="820" y="212" font-family="Inter, -apple-system, sans-serif" font-size="8" font-weight="700" fill="#64748b" letter-spacing=".06em">SHELF</text>
  <text x="950" y="212" font-family="Inter, -apple-system, sans-serif" font-size="8" font-weight="700" fill="#64748b" letter-spacing=".06em">TYPE</text>
  <text x="1060" y="212" font-family="Inter, -apple-system, sans-serif" font-size="8" font-weight="700" fill="#64748b" letter-spacing=".06em">SAVED</text>

  <!-- Item rows -->
  <!-- Row 1 -->
  <rect x="592" y="224" width="540" height="36" rx="0" fill="transparent" stroke="#1e1e30" stroke-width="0"/>
  <line x1="592" y1="260" x2="1132" y2="260" stroke="#1e1e30" stroke-width="1"/>
  <rect x="606" y="232" width="22" height="22" rx="6" fill="rgba(249,115,22,0.1)" stroke="rgba(249,115,22,0.2)" stroke-width="1"/>
  <text x="617" y="247" font-family="Inter, -apple-system, sans-serif" font-size="9" fill="#F97316" text-anchor="middle">L</text>
  <text x="640" y="243" font-family="Inter, -apple-system, sans-serif" font-size="11" font-weight="500" fill="#e2e8f0">The Art of Readable Code — Practical tips for clean software</text>
  <rect x="806" y="229" width="110" height="20" rx="6" fill="rgba(99,102,241,0.08)" stroke="rgba(99,102,241,0.2)" stroke-width="1"/>
  <text x="861" y="243" font-family="Inter, -apple-system, sans-serif" font-size="9" font-weight="500" fill="#818CF8" text-anchor="middle">Dev Tools</text>
  <rect x="936" y="229" width="36" height="20" rx="6" fill="rgba(249,115,22,0.12)"/>
  <text x="954" y="243" font-family="Inter, -apple-system, sans-serif" font-size="8" font-weight="600" fill="#F97316" text-anchor="middle">Link</text>
  <text x="1046" y="243" font-family="Inter, -apple-system, sans-serif" font-size="9" fill="#64748b">2h ago</text>

  <!-- Row 2 -->
  <rect x="592" y="260" width="540" height="36" rx="0" fill="rgba(99,102,241,0.03)"/>
  <line x1="592" y1="296" x2="1132" y2="296" stroke="#1e1e30" stroke-width="1"/>
  <rect x="606" y="268" width="22" height="22" rx="6" fill="rgba(99,102,241,0.1)" stroke="rgba(99,102,241,0.2)" stroke-width="1"/>
  <text x="617" y="283" font-family="Inter, -apple-system, sans-serif" font-size="9" fill="#6366F1" text-anchor="middle">D</text>
  <text x="640" y="279" font-family="Inter, -apple-system, sans-serif" font-size="11" font-weight="500" fill="#e2e8f0">Q1 2026 Product Roadmap — Feature prioritization &amp; schedule</text>
  <rect x="806" y="265" width="128" height="20" rx="6" fill="rgba(249,115,22,0.08)" stroke="rgba(249,115,22,0.2)" stroke-width="1"/>
  <text x="870" y="279" font-family="Inter, -apple-system, sans-serif" font-size="9" font-weight="500" fill="#F97316" text-anchor="middle">Design Resources</text>
  <rect x="936" y="265" width="34" height="20" rx="6" fill="rgba(99,102,241,0.12)"/>
  <text x="953" y="279" font-family="Inter, -apple-system, sans-serif" font-size="8" font-weight="600" fill="#818CF8" text-anchor="middle">Doc</text>
  <text x="1046" y="279" font-family="Inter, -apple-system, sans-serif" font-size="9" fill="#64748b">Yesterday</text>

  <!-- Row 3 -->
  <line x1="592" y1="332" x2="1132" y2="332" stroke="#1e1e30" stroke-width="1"/>
  <rect x="606" y="304" width="22" height="22" rx="6" fill="rgba(16,185,129,0.1)" stroke="rgba(16,185,129,0.2)" stroke-width="1"/>
  <text x="617" y="319" font-family="Inter, -apple-system, sans-serif" font-size="9" fill="#10b981" text-anchor="middle">N</text>
  <text x="640" y="315" font-family="Inter, -apple-system, sans-serif" font-size="11" font-weight="500" fill="#e2e8f0">Meeting notes: Series A prep with YC founders</text>
  <rect x="806" y="301" width="128" height="20" rx="6" fill="rgba(139,92,246,0.08)" stroke="rgba(139,92,246,0.2)" stroke-width="1"/>
  <text x="870" y="315" font-family="Inter, -apple-system, sans-serif" font-size="9" font-weight="500" fill="#a78bfa" text-anchor="middle">Product Strategy</text>
  <rect x="936" y="301" width="38" height="20" rx="6" fill="rgba(16,185,129,0.12)"/>
  <text x="955" y="315" font-family="Inter, -apple-system, sans-serif" font-size="8" font-weight="600" fill="#10b981" text-anchor="middle">Note</text>
  <text x="1046" y="315" font-family="Inter, -apple-system, sans-serif" font-size="9" fill="#64748b">2 days ago</text>

  <!-- Row 4 -->
  <line x1="592" y1="368" x2="1132" y2="368" stroke="#1e1e30" stroke-width="1"/>
  <rect x="606" y="340" width="22" height="22" rx="6" fill="rgba(245,158,11,0.1)" stroke="rgba(245,158,11,0.2)" stroke-width="1"/>
  <text x="617" y="355" font-family="Inter, -apple-system, sans-serif" font-size="9" fill="#f59e0b" text-anchor="middle">F</text>
  <text x="640" y="351" font-family="Inter, -apple-system, sans-serif" font-size="11" font-weight="500" fill="#e2e8f0">Figma Design System v3.2 — Components and tokens export</text>
  <rect x="806" y="337" width="128" height="20" rx="6" fill="rgba(249,115,22,0.08)" stroke="rgba(249,115,22,0.2)" stroke-width="1"/>
  <text x="870" y="351" font-family="Inter, -apple-system, sans-serif" font-size="9" font-weight="500" fill="#F97316" text-anchor="middle">Design Resources</text>
  <rect x="936" y="337" width="30" height="20" rx="6" fill="rgba(245,158,11,0.12)"/>
  <text x="951" y="351" font-family="Inter, -apple-system, sans-serif" font-size="8" font-weight="600" fill="#f59e0b" text-anchor="middle">File</text>
  <text x="1046" y="351" font-family="Inter, -apple-system, sans-serif" font-size="9" fill="#64748b">3 days ago</text>

  <!-- Row 5 partial -->
  <rect x="606" y="376" width="22" height="22" rx="6" fill="rgba(239,68,68,0.1)" stroke="rgba(239,68,68,0.2)" stroke-width="1"/>
  <text x="617" y="391" font-family="Inter, -apple-system, sans-serif" font-size="9" fill="#ef4444" text-anchor="middle">V</text>
  <text x="640" y="387" font-family="Inter, -apple-system, sans-serif" font-size="11" font-weight="500" fill="#e2e8f0">Paul Graham — How to Start a Startup (YC Lecture 2024)</text>
  <rect x="806" y="373" width="128" height="20" rx="6" fill="rgba(139,92,246,0.08)" stroke="rgba(139,92,246,0.2)" stroke-width="1"/>
  <text x="870" y="387" font-family="Inter, -apple-system, sans-serif" font-size="9" font-weight="500" fill="#a78bfa" text-anchor="middle">Product Strategy</text>
  <rect x="936" y="373" width="40" height="20" rx="6" fill="rgba(239,68,68,0.12)"/>
  <text x="956" y="387" font-family="Inter, -apple-system, sans-serif" font-size="8" font-weight="600" fill="#ef4444" text-anchor="middle">Video</text>

  <!-- Bar chart at bottom -->
  <rect x="592" y="420" width="540" height="150" rx="12" fill="#111120" stroke="#1e1e30" stroke-width="1"/>
  <text x="612" y="442" font-family="Inter, -apple-system, sans-serif" font-size="11" font-weight="700" fill="#e2e8f0">Items saved over time</text>

  <!-- Bar chart bars -->
  <rect x="612" y="514" width="20" height="40" rx="3" fill="url(#barGrad)" opacity=".7"/>
  <rect x="638" y="500" width="20" height="54" rx="3" fill="url(#barGrad)" opacity=".75"/>
  <rect x="664" y="508" width="20" height="46" rx="3" fill="url(#barGrad)" opacity=".8"/>
  <rect x="690" y="490" width="20" height="64" rx="3" fill="url(#barGrad)" opacity=".85"/>
  <rect x="716" y="503" width="20" height="51" rx="3" fill="url(#barGrad)" opacity=".75"/>
  <rect x="742" y="484" width="20" height="70" rx="3" fill="url(#barGrad)" opacity=".9"/>
  <rect x="768" y="495" width="20" height="59" rx="3" fill="url(#barGrad)"/>
  <rect x="794" y="472" width="20" height="82" rx="3" fill="url(#barGrad)"/>
  <rect x="820" y="498" width="20" height="56" rx="3" fill="url(#barGrad)" opacity=".85"/>
  <rect x="846" y="479" width="20" height="75" rx="3" fill="url(#barGrad)"/>
  <rect x="872" y="466" width="20" height="88" rx="3" fill="url(#barGrad)"/>
  <rect x="898" y="488" width="20" height="66" rx="3" fill="url(#barGrad)" opacity=".9"/>
  <rect x="924" y="470" width="20" height="84" rx="3" fill="url(#barGrad)"/>
  <rect x="950" y="460" width="20" height="94" rx="3" fill="url(#barGrad)"/>
  <rect x="976" y="475" width="20" height="79" rx="3" fill="url(#barGradIndigo)" opacity=".9"/>
  <!-- baseline -->
  <line x1="612" y1="554" x2="1112" y2="554" stroke="#1e1e30" stroke-width="1"/>

  <!-- Fade overlay at bottom of panel -->
  <defs>
    <linearGradient id="fadeOut" x1="0%" y1="0%" x2="0%" y2="100%">
      <stop offset="0%" stop-color="#111120" stop-opacity="0"/>
      <stop offset="100%" stop-color="#111120" stop-opacity="1"/>
    </linearGradient>
  </defs>
  <rect x="572" y="520" width="580" height="62" fill="url(#fadeOut)" rx="0"/>
  <rect x="572" y="565" width="580" height="17" rx="0" fill="#111120"/>
  <!-- Bottom panel corners -->
  <rect x="572" y="560" width="10" height="22" fill="#111120"/>
  <rect x="1122" y="560" width="10" height="22" fill="#111120"/>
  <rect x="572" y="566" width="580" height="16" rx="8" fill="#111120"/>
</svg>
